<svg width="300" height="100" viewBox="0 0 300 100" fill="none" xmlns="http://www.w3.org/2000/svg">
<rect width="300" height="100" rx="16" fill="#0055FF"/>
<path d="M150 20C162.879 20.0001 171.862 41.8204 176.965 59.1434C180.129 69.886 171.721 80 160.523 80C159.976 80 159.465 80 159 80C152.244 80 158.96 60 150 60C141.04 60 147.747 80 139 80C128.048 80 119.832 70.1129 122.901 59.6C127.98 42.2063 137.007 19.9999 150 20Z" fill="white"/>
<path d="M150 20C162.879 20.0001 171.862 41.8204 176.965 59.1434C180.129 69.886 171.721 80 160.523 80C159.976 80 159.465 80 159 80C152.244 80 158.96 60 150 60C141.04 60 147.747 80 139 80C128.048 80 119.832 70.1129 122.901 59.6C127.98 42.2063 137.007 19.9999 150 20Z" fill="url(#paint0_linear_104_53)" fill-opacity="0.2"/>
<defs>
<linearGradient id="paint0_linear_104_53" x1="150" y1="21.5" x2="150" y2="80.5" gradientUnits="userSpaceOnUse">
<stop offset="0.3" stop-color="#0055FF"/>
<stop offset="1" stop-color="white" stop-opacity="0"/>
</linearGradient>
</defs>
</svg>
