<svg width="90" height="90" viewBox="0 0 90 90" fill="none" xmlns="http://www.w3.org/2000/svg">
<g clip-path="url(#clip0_34_2)">
<rect width="90" height="90" fill="#D1FF1A"/>
<path d="M45 65C64.33 65 80 56.0457 80 45C80 33.9543 64.33 25 45 25C25.67 25 10 33.9543 10 45C10 56.0457 25.67 65 45 65Z" fill="white" stroke="black" stroke-width="4"/>
<path d="M45 59C52.732 59 59 52.732 59 45C59 37.268 52.732 31 45 31C37.268 31 31 37.268 31 45C31 52.732 37.268 59 45 59Z" fill="#FF00FF" stroke="black" stroke-width="3"/>
<path d="M40 42C40.6518 41.3348 41.4297 40.8063 42.2883 40.4456C43.1468 40.0848 44.0687 39.899 45 39.899C45.9313 39.899 46.8532 40.0848 47.7117 40.4456C48.5703 40.8063 49.3482 41.3348 50 42V39L56 44L50 49V46C50 44.6739 49.4732 43.4021 48.5355 42.4645C47.5979 41.5268 46.3261 41 45 41C43.6739 41 42.4021 41.5268 41.4645 42.4645C40.5268 43.4021 40 44.6739 40 46V42Z" fill="black"/>
<path d="M50 48C49.3482 48.6652 48.5703 49.1937 47.7117 49.5544C46.8532 49.9152 45.9313 50.101 45 50.101C44.0687 50.101 43.1468 49.9152 42.2883 49.5544C41.4297 49.1937 40.6518 48.6652 40 48V51L34 46L40 41V44C40 45.3261 40.5268 46.5979 41.4645 47.5355C42.4021 48.4732 43.6739 49 45 49C46.3261 49 47.5979 48.4732 48.5355 47.5355C49.4732 46.5979 50 45.3261 50 44V48Z" fill="black"/>
</g>
<defs>
<clipPath id="clip0_34_2">
<rect width="90" height="90" fill="white"/>
</clipPath>
</defs>
</svg>
